<svg width="35" height="35" viewBox="0 0 35 35" fill="none" xmlns="http://www.w3.org/2000/svg">
<path d="M17.0455 35C7.63151 35 0 27.165 0 17.5C0 7.835 7.63151 0 17.0455 0C26.4594 0 34.0909 7.835 34.0909 17.5C34.0909 27.165 26.4594 35 17.0455 35ZM12.5011 27.2378H15.4574V23.0542C16.3097 23.314 17.122 23.4438 17.8944 23.4438C19.2927 23.4438 20.4645 23.0012 21.41 22.116C22.3555 21.2307 22.8283 20.1284 22.8283 18.8091C22.8283 17.7632 22.4887 16.8455 21.8095 16.0559C21.1304 15.2664 20.1716 14.6768 18.9331 14.2871C19.8653 13.7812 20.5644 13.2002 21.0305 12.5439C21.4966 11.8877 21.7296 11.1528 21.7296 10.3394C21.7296 9.2456 21.3518 8.3723 20.596 7.7195C19.8403 7.0666 18.8299 6.74023 17.5648 6.74023C15.8736 6.74023 14.6068 7.2871 13.7645 8.3809C12.9222 9.4746 12.5011 11.1152 12.5011 13.3027V27.2378ZM16.0667 13.7949V15.6304H16.3363C17.3351 15.6304 18.1724 15.9414 18.8482 16.5635C19.524 17.1856 19.862 17.9546 19.862 18.8706C19.862 19.6226 19.6339 20.2566 19.1778 20.7727C18.7217 21.2888 18.1607 21.5469 17.4949 21.5469C16.8757 21.5469 16.1965 21.3657 15.4574 21.0034V12.4722C15.4574 11.1938 15.6089 10.2351 15.9119 9.5959C16.2148 8.9568 16.6726 8.6372 17.2852 8.6372C17.7845 8.6372 18.1607 8.7961 18.4138 9.114C18.6668 9.4319 18.7933 9.9053 18.7933 10.5342C18.7933 11.457 18.5552 12.2312 18.0792 12.8567C17.6031 13.4822 17.0155 13.7949 16.3164 13.7949H16.0667Z" fill="#0FCB8C"/>
</svg>
